<?xml version="1.0" encoding="utf-8"?>
<!-- Generator: Adobe Illustrator 19.2.1, SVG Export Plug-In . SVG Version: 6.00 Build 0)  -->
<svg version="1.1" id="Layer_1" xmlns="http://www.w3.org/2000/svg" xmlns:xlink="http://www.w3.org/1999/xlink" x="0px" y="0px"
	 viewBox="0 0 60 20" style="enable-background:new 0 0 60 20;" xml:space="preserve">
<style type="text/css">
	.st0{fill:#6DACD4;}
</style>
<g>
	<path class="st0" d="M2.6,17.8L2.6,17.8c-0.6,0-1.3-0.4-1.3-1c0-0.2,0.1-0.4,0.2-0.6C1.8,15.8,4,15,4,14.9c0-0.4-3.8-0.5-4-3.1
		c0-0.1,0-0.2,0-0.4c0-2.2,1.9-3.8,3.4-5C3.6,6.1,4,6,4.3,6C5.2,6,6,6.6,6.1,7.2c0,0.1,0,0.1,0,0.2c0,0.4-0.2,0.8-0.8,0.8
		C5.1,8.2,4.9,8.1,4.6,8C4.2,8.1,3.3,9.1,3,9.5C2.3,10.3,2,11.1,2,11.4v0.1c0.3,1.6,3.8,0.9,4.2,3.4v0.1C6.2,15.9,3.5,17.7,2.6,17.8
		z"/>
	<path class="st0" d="M12.5,15.9c-0.1,0.2-0.3,0.3-0.6,0.3c-0.3,0-0.6-0.1-0.8-0.3c-0.6,0.3-1.3,0.6-2,0.6c-0.5,0-0.9-0.1-1.3-0.5
		c-0.4-0.4-0.6-0.9-0.6-1.5c0-1.5,1.4-3.1,2.8-3.1c0.5,0,0.9,0.2,1.4,0.6c0,0,0,0,0,0c0-0.6-0.1-1.3-0.5-2c-0.2-0.4-0.5-0.5-0.8-0.5
		c-0.3,0-0.6,0.2-0.6,0.3c-0.1,0.4-0.4,0.6-0.7,0.6c-0.5,0-1-0.3-1-0.9V9.3c0-1.1,1.3-1.7,2.5-1.7c0.5,0,0.9,0.1,1.3,0.3
		c1.5,0.9,1.9,2.4,1.9,3.9C13.4,13.7,12.8,15.5,12.5,15.9z M10.2,13.3L10.2,13.3c-0.6,0.1-0.8,0.5-0.9,0.8c-0.1,0.1-0.1,0.3-0.1,0.3
		c0,0.1,0.1,0.2,0.2,0.2c0.3,0,1-0.5,1.2-0.6C10.4,13.7,10.3,13.3,10.2,13.3z"/>
	<path class="st0" d="M22.1,8.8L22.1,8.8c-0.3,0-0.5-0.1-0.7-0.1c-0.9,0-1.7,0.2-2.4,0.3c-0.1,1.2-0.4,3.5-0.4,5
		c0,0.5,0,0.8,0.1,1.1c0,0.2,0.1,0.3,0.1,0.5c0,0.7-0.5,1-0.9,1c-0.6,0-1.3-0.5-1.3-1.5V15c0.1-0.8,0-1.9,0.2-3.8l0.2-1.6
		c-0.6,0.2-0.7,0.4-1.4,0.8c-0.2,0.1-0.4,0.2-0.6,0.2c-0.6,0-1.1-0.6-1.1-1.1c0-0.3,0.1-0.6,0.4-0.8c0.6-0.5,2.2-1,3-1.2
		c0.1-0.6,0.3-1.9,0.4-3V4.2c0-0.2,0-0.4,0-0.6c0-0.2,0-0.3,0-0.4c0.1-0.5,0.3-0.9,0.9-0.9c0.8,0,1.1,1,1.1,2.1
		c0,1.1-0.2,2.2-0.3,2.7c0.6-0.1,1.1-0.1,1.6-0.1c0.3,0,0.5,0,0.8,0C22.6,6.9,23,7.5,23,7.9C23,8.4,22.7,8.8,22.1,8.8z"/>
	<path class="st0" d="M21.4,13.8c0-2.4,3.1-5.4,4.7-5.6c0.1,0,0.2,0,0.6,0c0.8,0,1.2,0.4,1.2,0.8c0,0.7-0.7,1.5-1.5,1.5
		c-0.1,0-0.2,0-0.2,0c-0.1,0-0.3-0.1-0.3-0.1c0,0,0,0,0,0c-0.8,0.2-2.3,2.2-2.3,3.3c0,0.5,0.4,0.7,0.9,0.7c1.7,0,5-2,6.5-2.8
		c0.1-0.1,0.3-0.1,0.5-0.1c0.5,0,1.1,0.4,1.1,0.8c0,0.2-0.1,0.3-0.3,0.5c-1.7,1.2-5.3,3.5-7.9,3.5c-0.9,0-1.7-0.3-2.3-1
		C21.5,14.8,21.4,14.3,21.4,13.8z"/>
	<path class="st0" d="M39.6,15.4c0,0.6-0.5,0.9-1,0.9c-0.6,0-1.1-0.4-1.1-1.6c0-0.1,0-0.2,0-0.4c0-0.5,0.1-1.6,0.1-2.5
		c0-0.9-0.1-1.6-0.4-1.8c-0.1,0-0.1,0-0.2,0c-0.9,0-2.5,2.1-2.9,3c-0.3,0.6-0.4,1.2-0.4,1.6c0,0.3,0,0.6,0,0.7c0,0.1,0,0.2,0,0.3
		c0,1-0.6,1.5-1.3,1.5c-0.6,0-1.2-0.4-1.2-1.1c0-0.2,0-0.4,0.1-0.7c0.2-0.4,0.2-0.3,0.2-0.8c0.1-2.5,0.1-4.3,0.3-6.5
		c0.2-1.5,0.2-2.7,0.3-3.4c0.1-1.2,0.7-1.7,1.2-1.7c0.6,0,1.1,0.5,1.1,1.3v0.2c-0.1,0.6-0.3,1.5-0.4,2.7c-0.1,1-0.2,2.1-0.3,3.1
		c1-1,2.3-2.2,3.6-2.2c0.2,0,0.4,0,0.6,0.1c1.2,0.4,1.6,2.9,1.6,5.1c0,0.5,0,0.9,0,1.3v0.2C39.5,14.9,39.6,15.1,39.6,15.4
		C39.6,15.3,39.6,15.4,39.6,15.4z"/>
	<path class="st0" d="M52,15.4c-0.1,0.2-0.6,0.5-1,0.5c-0.3,0-0.6-0.1-0.8-0.5c-0.2-0.3-0.3-1-0.3-1.7c0-1.1,0.1-2.4,0.1-3.3
		c0-0.5,0-0.9-0.2-1c-0.2,0-2.2,4.8-2.4,6.1c-0.1,0.7-0.4,1.2-0.9,1.2c-0.1,0-0.1,0-0.2,0c-1-0.2-1-0.9-1-1.8l-0.1-3.1
		c0-0.4,0-0.7,0-1.1V10c-0.6,1.2-1.7,3.6-1.7,5.2c0,0.1,0,0.3,0,0.4c0,0.1,0,0.1,0,0.2c0,0.6-0.6,0.9-1.1,0.9
		c-0.4,0-0.7-0.1-0.9-0.4c-0.1-0.1-0.1-0.5-0.1-0.9c0-1.2,0.3-3.3,0.3-4.6c0-0.2,0-0.4,0-0.6c0-0.2,0-0.3,0-0.5c0-0.2,0-0.5,0.2-0.6
		c0.2-0.4,0.6-0.5,0.9-0.5c0.4,0,0.7,0.2,1,0.5c0.5-0.8,1.3-1.8,1.8-1.8c0.6,0,1.1,0.5,1.3,0.9c0.2,0.3,0.4,1.3,0.5,2.8
		c0.9-1.6,2-3.5,2.9-3.7h0.1c0.8,0,1.5,1,1.6,1.4c0.2,0.6,0.2,2.6,0.2,4c0,0.7,0,1.3,0,1.4v0c0,0.3,0.2,0.5,0.2,0.8
		C52.1,15,52.1,15.2,52,15.4z"/>
	<path class="st0" d="M55.6,16.2c-0.3,0-0.6-0.1-0.9-0.2c-0.8-0.4-1.6-1.7-1.6-3.1c0-0.5,0.1-1.1,0.3-1.6c1-2.3,2.1-3.4,3.4-3.5H57
		c1,0,2.6,0.8,3,3c0,0.2,0.1,0.5,0.1,0.7C60,14.3,57.4,16.2,55.6,16.2z M57.8,10.4c-0.2-0.3-0.2-0.5-0.5-0.6
		c-0.4,0.1-1.4,0.6-2.1,2.5c-0.1,0.2-0.1,0.3-0.1,0.5c0,0.6,0.2,1.1,0.5,1.2c0,0,0.1,0,0.1,0c0.5,0,1.5-0.7,1.8-1.3
		c0.3-0.6,0.5-1.1,0.5-1.6C58,11,58,10.7,57.8,10.4z"/>
</g>
</svg>
