<?xml version="1.0" encoding="utf-8"?>
<!-- Generator: Adobe Illustrator 19.2.1, SVG Export Plug-In . SVG Version: 6.00 Build 0)  -->
<svg version="1.1" id="Layer_1" xmlns="http://www.w3.org/2000/svg" xmlns:xlink="http://www.w3.org/1999/xlink" x="0px" y="0px"
	 viewBox="0 0 100 100" style="enable-background:new 0 0 100 100;" xml:space="preserve">
<style type="text/css">
	.st0{fill:#6DACD4;}
</style>
<g>
	<path class="st0" d="M50,2c26.5,0,48,21.5,48,48S76.5,98,50,98S2,76.5,2,50S23.5,2,50,2 M50,0C22.4,0,0,22.4,0,50s22.4,50,50,50
		s50-22.4,50-50S77.6,0,50,0L50,0z"/>
</g>
<rect x="49" y="25" class="st0" width="2" height="50"/>
<rect x="49" y="25" transform="matrix(4.547480e-11 -1 1 4.547480e-11 -2.274192e-09 100)" class="st0" width="2" height="50"/>
</svg>
